<?xml version="1.0" standalone="no"?><!DOCTYPE svg PUBLIC "-//W3C//DTD SVG 1.1//EN" "http://www.w3.org/Graphics/SVG/1.1/DTD/svg11.dtd"><svg class="icon" width="200px" height="195.61px" viewBox="0 0 1047 1024" version="1.1" xmlns="http://www.w3.org/2000/svg"><path d="M248.025865 625.818153V157.463922h-3.754908a36.337828 36.337828 0 0 0-36.337829 36.337829v444.129012a60.159293 60.159293 0 0 1 36.337829-12.11261z" fill="#F58E70" /><path d="M559.764056 738.869174H244.270957a52.487974 52.487974 0 0 1-52.487975-52.487974V193.801751a52.487974 52.487974 0 0 1 52.487975-52.487974h440.091475v496.616986h-8.075073V149.388849h-432.016402a44.412901 44.412901 0 0 0-44.412902 44.412902v492.579449a44.412901 44.412901 0 0 0 44.412902 44.412901h315.493099z" fill="#475059" /><path d="M199.858055 686.3812h-8.075073a52.487974 52.487974 0 0 1 52.487975-52.487974h436.053939v8.075073h-436.053939a44.412901 44.412901 0 0 0-44.412902 44.412901" fill="#475059" /><path d="M559.764056 738.869174H244.270957a52.487974 52.487974 0 0 1 0-104.975948h440.091475v8.075073h-440.091475a44.412901 44.412901 0 0 0 0 88.825802h315.493099z" fill="#475059" /><path d="M559.764056 722.719028H244.270957a36.337828 36.337828 0 0 1 0-72.675656h432.016402v8.075073h-432.016402a28.262755 28.262755 0 0 0 0 56.525511h315.493099z" fill="#475059" /><path d="M559.764056 706.568883H244.270957a20.187682 20.187682 0 0 1 0-40.375365h427.978866v8.075073h-427.978866a12.112609 12.112609 0 0 0 0 24.225219h315.493099z" fill="#475059" /><path d="M244.270957 682.343664h315.533475v8.075073H244.270957zM459.189023 317.915622l-36.337828-51.397839h72.675656zM438.39571 274.55248l20.793313 29.35289 20.793313-29.35289z" fill="#475059" /><path d="M369.596089 308.508162l-9.528586-9.690088h-14.615882v-8.075073h17.967037l6.338932 6.419683 6.783061-6.419683h71.222144v8.075073H379.770681l-10.174592 9.690088z" fill="#475059" /><path d="M397.939595 468.354231h-56.525511v-4.037537a3.795284 3.795284 0 0 0-3.754909-3.795284h-8.3577v-29.756644l40.375364-124.961754 40.375365 126.21339v28.262756h-8.075073a4.037536 4.037536 0 0 0-4.037536 4.037536z m-49.136819-8.075073h41.788502a12.112609 12.112609 0 0 1 11.264727-8.075073v-19.703178l-32.300292-100.453908-32.300292 100.453908v19.824304h0.282628a12.112609 12.112609 0 0 1 11.264727 7.953947" fill="#475059" /><path d="M333.419762 428.019241h72.635281v8.075073H333.419762zM546.84394 308.548537l-9.205583-9.730463h-67.023106v-8.075073h70.535762l6.01593 6.379308 6.783061-6.379308h17.967037v8.075073h-14.777383l-10.295718 9.730463zM430.239886 500.694898h56.606262v8.075073h-56.606262zM478.690324 339.153064h-8.075073v-8.075073h8.075073z m-16.150146 0h-8.075073v-8.075073h8.075073z m-16.150146 0h-8.075073v-8.075073h8.075073z" fill="#475059" /><path d="M438.355335 351.306048h8.075073v153.426386h-8.075073zM470.655627 351.306048h8.075072v153.426386h-8.075072zM454.505481 351.306048h8.075073v153.426386h-8.075073zM430.239886 314.96822h56.606262v8.075073h-56.606262zM575.591199 468.354231h-56.52551v-4.037537a3.795284 3.795284 0 0 0-3.754909-3.795284h-8.357701v-29.756644l40.375365-124.961754 40.375365 126.21339v28.262756h-8.075073a4.037536 4.037536 0 0 0-4.037537 4.037536z m-49.136818-8.075073h41.788502a12.112609 12.112609 0 0 1 11.264727-8.075073v-19.703178l-32.300292-100.453908-32.300292 100.453908v19.824304h0.282628a12.112609 12.112609 0 0 1 11.1436 7.832821" fill="#475059" /><path d="M511.071367 428.019241h72.635281v8.075073h-72.635281zM430.239886 347.268512h56.606262v8.075073h-56.606262zM418.127277 516.845044h80.83148v8.075073h-80.83148zM389.864522 452.204085h-8.075073v-8.075073h8.075073z m-16.150146 0h-8.075073v-8.075073h8.075073z m-16.150146 0h-8.075073v-8.075073h8.075073zM567.516126 452.204085h-8.075072v-8.075073h8.075072z m-16.150145 0h-8.075073v-8.075073h8.075073z m-16.150146 0h-8.075073v-8.075073h8.075073z" fill="#475059" /><path d="M256.625818 625.818153h411.82872V157.463922h-411.82872z m201.876824-52.487974a181.689141 181.689141 0 1 1 181.689141-181.689141 181.689141 181.689141 0 0 1-181.689141 181.689141" fill="#F58E70" /><path d="M801.773993 694.415898h8.075073v16.150146h-8.075073zM801.773993 734.791263h8.075073v16.150145h-8.075073zM817.924138 718.641117h16.150146v8.075073h-16.150146zM777.548774 718.641117h16.150146v8.075073h-16.150146z" fill="#48515A" /><path d="M478.165444 787.319612a8.075073 8.075073 0 1 1-8.075073-8.075073 8.075073 8.075073 0 0 1 8.075073 8.075073M841.745604 488.541913a8.075073 8.075073 0 1 1-8.075073-8.075073 8.075073 8.075073 0 0 1 8.075073 8.075073" fill="#F58E70" /><path d="M740.887943 343.1906a20.187682 20.187682 0 0 0-20.187683 20.187682v185.726678l-8.075073 56.525511h-8.075073v24.225219h8.075073v48.450437h-8.075073v24.225219h36.337829zM805.488526 708.062771h26.768867v131.70444h-26.768867zM652.06214 710.566044h24.225219v129.201167h-24.225219zM571.311411 694.415898h24.225219v161.501459h-24.225219z" fill="#DEDEDD" /><path d="M829.713745 694.415898h24.225219v161.501459h-24.225219z" fill="#DEDEDD" /><path d="M781.263307 706.568883h-80.750729v-32.300292h8.075073v-40.375365h-8.075073v-32.300292h8.599953l7.550193-52.770601V363.378282a24.225219 24.225219 0 0 1 48.450437 0v185.444051l7.509818 52.770601h8.640328v32.300292h-8.075073v40.375365h8.075073z m-72.675656-8.075073h64.600583v-16.150146h-8.075073v-56.525511h8.075073v-16.150146h-7.550193l-8.599953-60.563047V363.378282a16.150146 16.150146 0 0 0-32.300291 0v186.291933L716.097469 609.668007h-7.509818v16.150146h8.075073v56.525511h-8.075073z" fill="#475059" /><path d="M712.625187 674.228215h56.525511v8.075073h-56.525511zM712.625187 625.818153h56.525511v8.075073h-56.525511zM712.625187 601.592934h56.525511v8.075073h-56.525511z" fill="#475059" /><path d="M680.324896 702.490971h121.126094v145.351313h-121.126094z" fill="#FFD15D" /><path d="M805.488526 851.920196h-129.201167v-153.426386h129.201167z m-121.126094-8.075073h113.051021v-137.27624h-113.051021z" fill="#FFD15D" /><path d="M890.276792 868.070341h-40.375365v-8.075072h-12.112609a12.112609 12.112609 0 0 1-12.112609-12.11261v-145.351313a12.112609 12.112609 0 0 1 12.112609-12.112609h12.112609v-8.075073h40.375365v8.075073h12.112609a12.112609 12.112609 0 0 1 12.11261 12.112609v145.351313a12.112609 12.112609 0 0 1-12.11261 12.11261h-12.112609z m-32.300292-8.075072h24.225219v-8.075073h20.187682a4.037536 4.037536 0 0 0 4.037537-4.037537v-145.351313a4.037536 4.037536 0 0 0-4.037537-4.037536h-20.187682v-8.075073h-24.225219v8.075073h-20.187682a4.037536 4.037536 0 0 0-4.037537 4.037536v145.351313a4.037536 4.037536 0 0 0 4.037537 4.037537h20.187682z" fill="#475059" /><path d="M882.201719 694.415898h8.075073v161.501459h-8.075073zM849.901427 694.415898h8.075073v161.501459h-8.075073zM631.874458 868.070341h-40.375365v-8.075072h-12.112609a12.112609 12.112609 0 0 1-12.11261-12.11261v-145.351313a12.112609 12.112609 0 0 1 12.11261-12.112609h12.112609v-8.075073h40.375365v8.075073h12.112609a12.112609 12.112609 0 0 1 12.11261 12.112609v145.351313a12.112609 12.112609 0 0 1-12.11261 12.11261h-12.112609z m-32.300292-8.075072h24.225219v-8.075073h20.187682a4.037536 4.037536 0 0 0 4.037537-4.037537v-145.351313a4.037536 4.037536 0 0 0-4.037537-4.037536h-20.187682v-8.075073h-24.225219v8.075073h-20.187682a4.037536 4.037536 0 0 0-4.037537 4.037536v145.351313a4.037536 4.037536 0 0 0 4.037537 4.037537h20.187682z" fill="#475059" /><path d="M623.799385 694.415898h8.075073v161.501459h-8.075073zM591.499093 694.415898h8.075073v161.501459h-8.075073zM801.45099 694.415898h8.075073v161.501459h-8.075073zM672.249823 694.415898h8.075073v161.501459h-8.075073z" fill="#475059" /><path d="M805.488526 706.528507h24.225219v8.075073h-24.225219zM805.488526 835.729674h24.225219v8.075073h-24.225219zM652.06214 706.528507h24.225219v8.075073h-24.225219zM652.06214 835.729674h24.225219v8.075073h-24.225219z" fill="#475059" /><path d="M898.472991 573.128302h8.075073v16.150146h-8.075073zM898.472991 613.503667h8.075073v16.150146h-8.075073zM914.623137 597.353521h16.150146v8.075073h-16.150146zM874.247772 597.353521h16.150146v8.075073h-16.150146zM179.34737 734.750887h8.075073v16.150146h-8.075073zM179.34737 775.126252h8.075073v16.150146h-8.075073zM195.497516 758.976106h16.150146v8.075073h-16.150146zM155.122151 758.976106h16.150146v8.075073h-16.150146z" fill="#48515A" /><path d="M890.196041 359.340746a8.075073 8.075073 0 1 1-8.075073-8.075073 8.075073 8.075073 0 0 1 8.075073 8.075073" fill="#F58E70" /><path d="M847.882659 213.989433h-282.82943l-36.701206-22.166075 35.005441-22.246826H847.882659a22.246826 22.246826 0 1 1 0 44.412901m-280.608785-8.075073H847.882659a14.131378 14.131378 0 0 0 14.171753-14.131378A14.171753 14.171753 0 0 0 847.882659 177.651605h-282.143049l-22.085324 14.050627z" fill="#475059" /><path d="M816.511001 173.492942h8.075073v36.378204h-8.075073zM560.490813 174.461951h8.075073v34.278685h-8.075073z" fill="#475059" /><path d="M566.466367 187.543569h253.759167v8.075073H566.466367z" fill="#475059" /><path d="M385.221355 1011.079883H355.30321v-53.981862h7.106064v48.006308h22.852456zM394.911442 1011.079883H387.603501l19.622428-53.981862h8.317325l19.622427 53.981862h-7.429067l-5.006545-14.131377h-22.812081z m7.025314-20.187682h18.572668l-9.286334-26.607365zM471.543885 961.216308l15.100386 40.375365 4.279789-44.412902h7.429067l-6.62156 53.981863h-8.721079l-14.938885-40.375365-14.615882 40.375365h-9.044082l-6.460058-53.981863h7.429067l4.279789 44.412902 14.858134-40.375365zM551.648608 981.686618a13.32387 13.32387 0 0 1 10.174592 14.050627c0 12.677865-10.982099 16.150146-22.206451 16.150146a69.607129 69.607129 0 0 1-14.535131-1.695766v-52.205346a104.329942 104.329942 0 0 1 15.423389-1.372763c9.205583 0 17.68441 2.745525 17.68441 13.768a12.112609 12.112609 0 0 1-6.540809 11.305102z m-19.460926-2.584024h10.255343a8.075073 8.075073 0 0 0 8.559577-8.317325c0-6.904187-5.168047-8.519202-10.820597-8.519202a43.363142 43.363142 0 0 0-8.075073 0.565255z m0 26.324738a44.655153 44.655153 0 0 0 8.398076 0.888258c6.863812 0 13.969876-2.26102 13.969876-10.820597s-6.863812-10.416844-14.45438-10.416845h-8.075073zM614.472676 984.10914c0 14.938885-4.360539 28.262755-22.610205 28.262755-18.976421 0-22.287201-13.000867-22.287201-28.262755s4.44129-28.262755 22.529454-28.262756 22.367952 13.162369 22.367952 28.262756z m-7.267566 0c0-12.839366-2.745525-22.73133-15.181137-22.731331s-15.261888 9.891964-15.261888 22.731331 2.826276 22.529454 15.261888 22.529453 15.181137-9.851589 15.181137-22.529453zM667.606656 984.10914c0 14.938885-4.360539 28.262755-22.610205 28.262755-18.976421 0-22.287201-13.000867-22.287201-28.262755s4.44129-28.262755 22.529454-28.262756 22.367952 13.162369 22.367952 28.262756z m-7.267566 0c0-12.839366-2.745525-22.73133-15.181137-22.731331s-15.261888 9.891964-15.261888 22.731331 2.826276 22.529454 15.261888 22.529453 15.181137-9.851589 15.181137-22.529453zM685.210315 981.121363h4.845043l18.491917-23.861841h8.80183l-21.560445 26.607365 24.225219 27.293747h-9.367085l-20.833688-24.225219h-4.764293v24.225219H678.306127v-54.062613h7.106064z" fill="#475059" /></svg>