<?xml version="1.0" standalone="no"?><!DOCTYPE svg PUBLIC "-//W3C//DTD SVG 1.1//EN" "http://www.w3.org/Graphics/SVG/1.1/DTD/svg11.dtd"><svg class="icon" width="200px" height="200.00px" viewBox="0 0 1024 1024" version="1.1" xmlns="http://www.w3.org/2000/svg"><path d="M64.5 633.46v-242.9c26.04 0 51.39-0.41 76.72 0.21 9.76 0.24 13.59-3.28 18.74-11.93 15.5-26.03 10.54-44.96-13.33-62.42-13.53-9.9-24.66-23.07-36.5-34.41L283.44 110.6c15.53 15.56 33.8 33.03 51.01 51.49 7.69 8.24 13.8 7.78 24.45 5.16 28.83-7.09 36.55-24.17 32.92-51.63-2.21-16.7-0.41-33.93-0.41-52.23h241.42c0 23.9 0.77 48.14-0.31 72.29-0.58 13.13 4.82 17.94 15.9 24.42 23.88 13.95 39.87 8.51 55.65-12.12 10.89-14.24 24.7-26.23 36.22-38.21 57.82 57.76 114.38 114.26 173.9 173.71-16.98 16.07-35.06 33.83-53.92 50.72-8.07 7.23-7.12 13.28-4.81 23.3 6.83 29.61 24.25 37.52 52.41 33.5 16.57-2.37 33.76-0.43 51.62-0.43v242.9c-25.79 0-51.14 0.41-76.47-0.21-9.75-0.24-13.59 3.27-18.75 11.93-15.55 26.07-10.55 45.07 13.44 62.34 13.64 9.82 25.22 22.5 37.36 33.56L740.84 913.41c-14.79-14.8-32.55-31.31-48.71-49.26-9.31-10.34-16.52-9.73-29.64-6.1-26.33 7.29-33.31 22.01-30.07 47.14 2.09 16.21 0.34 32.91 0.26 49.39-0.01 1.58-0.4 3.15-0.79 6.04H391.4c0-23.88-0.74-48.11 0.3-72.26 0.56-13.04-4.55-18.11-15.83-24.5-23.78-13.48-39.9-8.66-55.71 12.16-10.19 13.42-23.72 24.32-35.79 36.31-0.72 0.72-1.75 1.13-1.33 0.87l-173.1-172.37c17.17-16.3 35.21-34.1 54.06-51 8.1-7.26 7.05-13.31 4.76-23.3-6.81-29.62-24.24-37.52-52.4-33.5-16.57 2.36-33.76 0.43-51.86 0.43z m723.47 59.42c13.86-36.7 25.99-69.86 39.23-102.58 1.72-4.25 8.99-8.52 13.92-8.81 18.02-1.06 36.15-0.81 54.22-0.28 9.51 0.28 13.17-2.76 13.05-12.7-0.44-37.75-0.46-75.52 0.01-113.27 0.13-10.23-4.11-12.66-13.32-12.42-18.07 0.47-36.17 0.53-54.23-0.17-4.41-0.17-11.28-2.88-12.61-6.2-13.67-34.11-26.43-68.58-41.39-108.1 15.46-14.25 34.06-31.39 50.95-46.95-32.51-32.89-64.08-64.84-97.47-98.62-17.11 18.19-34.53 36.71-49.48 52.6-32.94-13.23-62.88-26.74-93.89-37.02-13.48-4.47-17.06-10.21-16.41-23.2 0.98-19.48 0.26-39.06 0.26-58.89H443.45c0 22.95 0.35 44.69-0.3 66.4-0.13 4.26-3.11 10.89-6.45 12.23-33.68 13.54-67.7 26.21-105.83 40.72-14.4-15.35-31.75-33.86-47.8-50.97-33.15 32.4-65.3 63.82-98.96 96.72 18.62 17.33 37.23 34.65 52.47 48.84-14.11 37.4-26.46 71.02-39.78 104.26-1.57 3.91-8.33 7.84-12.87 8.08-18.03 0.93-36.16 0.86-54.22 0.23-10.26-0.36-14.02 2.88-13.87 13.53 0.53 37.22 0.55 74.46-0.01 111.68-0.17 10.99 4.23 13.57 14.15 13.24 17.53-0.58 35.12-0.65 52.63 0.17 4.8 0.23 12.21 3.27 13.68 6.92 13.55 33.68 26.06 67.78 40.48 106.02-15.26 14.16-33.87 31.42-52.4 48.6 33.23 33.08 65.08 64.8 98.07 97.64 17.13-18.18 34.54-36.65 49.52-52.55 33.79 13.57 63.66 27.08 94.61 37.32 13.97 4.62 18.08 10.37 17.19 24.27-1.24 19.41-0.31 38.97-0.31 58.48H580.8c0-22.55-0.52-44.24 0.4-65.88 0.21-4.82 4.47-12 8.65-13.71 32.69-13.38 65.81-25.69 103.99-40.32 13.93 15.19 31.38 34.22 46.44 50.65 33.82-32.87 66.04-64.19 99.29-96.51a78511.12 78511.12 0 0 0-51.6-49.45z" fill="#0A3680" /><path d="M737.82 386.78c-13.45 11.39-28.36 20.66-44.01 28.77 15.28 28.97 23.94 62.07 23.93 97.34-0.04 113.1-92.5 205.3-205.84 205.28-114.57-0.02-205.77-92.58-205.62-208.7 0.14-111.76 92.95-203.49 205.85-203.45 62.17 0.02 117.58 27.38 155.19 70.8 5.16-2.61 10.23-5.41 15.25-8.31 1.66-1.75 3.64-3.23 5.96-4.33 1.6-1.3 3.34-2.47 5.39-3.28 2.44-2.76 5.61-4.94 9.59-6.11 2.07-1.64 4.12-3.33 6.08-5.12 0.67-0.61 1.42-1.1 2.15-1.63-1.7-2.09-3.39-4.19-5.15-6.22-47.55-55.01-117.65-89.74-195.52-89.39-142.01 0.64-257.16 117-257.01 259.72 0.15 142.9 115.18 258.88 257.3 259.41 142.39 0.54 258.71-116.29 258.59-259.7-0.04-45.33-11.72-87.96-32.13-125.08z" fill="#0A3680" /><path d="M512 605.22c-51.41 0-93.23-41.81-93.23-93.23s41.81-93.23 93.23-93.23 93.24 41.81 93.24 93.23-41.83 93.23-93.24 93.23z m0-143.18c-27.55 0-49.96 22.41-49.96 49.96s22.41 49.96 49.96 49.96 49.98-22.41 49.98-49.96-22.43-49.96-49.98-49.96z" fill="#0F3676" /></svg>