<?xml version="1.0" standalone="no"?><!DOCTYPE svg PUBLIC "-//W3C//DTD SVG 1.1//EN" "http://www.w3.org/Graphics/SVG/1.1/DTD/svg11.dtd"><svg class="icon" width="200px" height="200.00px" viewBox="0 0 1024 1024" version="1.1" xmlns="http://www.w3.org/2000/svg"><path d="M219.276507 708.923077L131.991684 1021.871102h104.316008l87.284824-312.948025zM649.313929 708.923077h-104.316008L634.411642 1021.871102h104.316009z" fill="#66C6B9" /><path d="M821.754678 0H48.964657C21.288981 0 0 21.288981 0 48.964657c0 27.675676 21.288981 48.964657 48.964657 48.964657h772.790021c27.675676 0 48.964657-21.288981 48.964657-48.964657C870.719335 21.288981 847.301455 0 821.754678 0z" fill="#F3705A" /><path d="M817.496881 97.929314V659.95842c0 38.320166-31.933472 70.253638-70.253638 70.253638H119.218295c-38.320166 0-70.253638-31.933472-70.253638-70.253638V97.929314h768.532224z" fill="#F3F3F3" /><path d="M421.52183 368.299376v-61.738045c-19.160083-6.386694-34.06237-12.773389-42.577963-25.546778s-12.773389-25.546778-12.773389-40.449064c0-17.031185 4.257796-29.804574 14.902287-40.449065s23.417879-17.031185 40.449065-19.160083v-14.902287h21.288981v14.902287c14.902287 2.128898 27.675676 6.386694 36.191268 14.902287s14.902287 21.288981 17.031185 34.06237l-36.191268 4.257796c-2.128898-10.644491-8.515593-19.160083-17.031185-23.417879v57.480249c23.417879 6.386694 40.449064 14.902287 48.964657 25.546778s12.773389 23.417879 12.773389 38.320166c0 17.031185-6.386694 31.933472-17.031185 44.706861-10.644491 12.773389-25.546778 19.160083-44.706861 21.288981V425.779626h-21.288981v-27.675676c-17.031185-2.128898-29.804574-8.515593-40.449065-19.160083s-17.031185-25.546778-21.288981-44.706861l38.320166-4.257796c2.128898 8.515593 4.257796 14.902287 8.515593 21.288981 6.386694 8.515593 10.644491 12.773389 14.902287 17.031185z m0-155.409563c-6.386694 2.128898-10.644491 4.257796-12.773389 10.644491-4.257796 4.257796-4.257796 10.644491-4.257797 14.902286 0 4.257796 2.128898 10.644491 4.257797 14.902287 2.128898 4.257796 8.515593 8.515593 14.902287 10.644491V212.889813z m21.288981 157.538461c6.386694-2.128898 12.773389-4.257796 17.031185-10.64449 4.257796-6.386694 6.386694-12.773389 6.386694-19.160083 0-6.386694-2.128898-12.773389-6.386694-17.031185s-10.644491-8.515593-19.160083-10.644491v57.480249z" fill="#F7B64C" /><path d="M738.727651 378.943867l-25.546778 70.253638-12.773389-17.031185-142.636174 119.218295-70.253638-40.449064-112.831601 87.284823-134.120582-68.12474-83.027027 127.733888-27.675676-17.031185 100.058212-151.151767 142.636175 72.382536 112.8316-89.413721 68.124741 40.449064 125.604989-104.316008-12.773389-17.031185z" fill="#55C0EB" /><path d="M747.243243 1021.871102h74.511435c2.128898-23.417879 4.257796-42.577963 4.257796-48.964657 2.128898-19.160083 14.902287-89.413721 17.031185-108.573805 2.128898-19.160083 12.773389-36.191268 14.902287-53.222453 2.128898-17.031185 8.515593-51.093555 8.515592-51.093555 12.773389 31.933472 27.675676 153.280665 29.804574 191.600832 0 17.031185 4.257796 44.706861 10.644491 72.382536h76.640333c0-31.933472-2.128898-68.12474-2.128899-83.027027-2.128898-21.288981-4.257796-59.609148-6.386694-85.155925v-155.409564l-221.405405-10.64449v114.960499c0 25.546778-2.128898 134.120582-2.128898 134.120582s-2.128898 40.449064-4.257797 83.027027z" fill="#415A6B" /><path d="M905.136859 241.76913a10.644491 17.031185 17.331 1 0 20.322457 6.341804 10.644491 17.031185 17.331 1 0-20.322457-6.341804Z" fill="#FFD15C" /><path d="M838.854231 240.801908a17.031185 10.644491 72.669 1 0-20.322457 6.341804 17.031185 10.644491 72.669 1 0 20.322457-6.341804Z" fill="#FFD15C" /><path d="M917.555094 234.178794l-2.128899 17.031185s-2.128898 21.288981-6.386694 31.933472V319.334719l-51.093555 31.933472-19.160083-42.577962 2.128898-27.675676s-6.386694-21.288981-8.515593-36.191268c-2.128898-14.902287-4.257796-40.449064-2.128898-48.964657s19.160083-25.546778 44.706861-23.41788c25.546778 2.128898 44.706861 4.257796 46.835759 17.031185 0 12.773389-4.257796 44.706861-4.257796 44.706861z" fill="#FFD15C" /><path d="M870.719335 332.108108h51.093555l-48.964657 191.600832-57.48025-191.600832z" fill="#CED6E0" /><path d="M881.363825 361.912682l8.515593-10.644491-19.160083-19.160083-19.160083 19.160083 10.64449 10.644491zM862.203742 361.912682l-10.64449 136.24948 19.160083 19.160083 19.160083-19.160083-8.515593-136.24948z" fill="#F3705A" /><path d="M828.141372 246.952183s-2.128898-17.031185 2.128898-25.546778c4.257796-8.515593 4.257796-14.902287 6.386695-19.160083 0-6.386694 6.386694-8.515593 14.902287-8.515592 8.515593 0 34.06237 2.128898 40.449064 0 6.386694-2.128898 17.031185 4.257796 17.031185 12.773389s-2.128898 8.515593 0 12.773388 4.257796 25.546778 4.257796 29.804574c0 0 8.515593-14.902287 10.644491-23.417879 2.128898-6.386694 8.515593-31.933472-6.386694-51.093555s-70.253638-31.933472-89.413722-2.128899c-19.160083 29.804574-2.128898 70.253638 0 74.511435z" fill="#415A6B" /><path d="M936.715177 325.721414s42.577963 23.417879 51.093555 27.675675c8.515593 2.128898 17.031185 6.386694 17.031185 6.386695s-29.804574 61.738046-34.06237 93.671517c-6.386694 31.933472 14.902287 272.49896 14.902287 272.498961s-55.351351 17.031185-78.769231 10.644491-40.449064-31.933472-46.835759-80.898129c-6.386694-48.964657 0-129.862786 0-129.862786s63.866944-138.378378 68.12474-146.893971 8.515593-53.222453 8.515593-53.222453z" fill="#344A5E" /><path d="M906.910603 295.91684s-6.386694 12.773389-19.160083 23.417879c-12.773389 10.644491-17.031185 12.773389-17.031185 12.773389s12.773389 14.902287 14.902287 23.41788l8.515592 12.773388s21.288981-38.320166 23.41788-46.835759-10.644491-25.546778-10.644491-25.546777z" fill="#F3F3F3" /><path d="M913.297297 306.561331s2.128898 27.675676-2.128898 53.222453-27.675676 114.960499-53.222453 166.054054c0 0 65.995842-87.284823 87.284823-166.054054l-14.902287-12.773389 10.644491-4.257796s-4.257796-10.644491-8.515593-17.031185c-4.257796-4.257796-6.386694-4.257796-8.515592-6.386695s-8.515593-12.773389-10.644491-12.773388z" fill="#415A6B" /><path d="M964.390852 706.794179l-12.773388 17.031185s-8.515593 14.902287-10.644491 21.288981c-2.128898 4.257796-4.257796 10.644491-4.257796 10.644491s10.644491 8.515593 17.031185-8.515593l6.386694-8.515592s4.257796 2.128898 6.386695 4.257796c2.128898 0 2.128898 4.257796 2.128898 4.257796s-2.128898 6.386694-2.128898 10.644491v2.128898s-4.257796 8.515593-4.257797 10.644491c0 0-6.386694 6.386694-6.386694 8.515592 0 0-10.644491 6.386694-6.386695 14.902287l4.257797-2.128898s0 2.128898 4.257796 2.128898l6.386694-4.257796 25.546778-14.902287c2.128898-2.128898 4.257796-4.257796 4.257796-6.386694l6.386695-14.902287v-46.835759h-36.191269z" fill="#FFD15C" /><path d="M1021.871102 536.482328l-14.902287 187.343036s-8.515593-6.386694-23.417879-10.644491c-8.515593-2.128898-17.031185-4.257796-25.546778-2.128898 0 0 10.644491-74.511435 8.515593-102.18711-4.257796-27.675676 0-136.24948 4.257796-157.538462 6.386694-31.933472 34.06237-93.671518 34.06237-93.671517s8.515593-2.128898 8.515592 17.031185 0 65.995842 4.257797 100.058212c4.257796 36.191268 4.257796 61.738046 4.257796 61.738045z" fill="#415A6B" /><path d="M806.852391 325.721414s-42.577963 23.417879-51.093555 27.675675c-8.515593 2.128898-17.031185 6.386694-17.031185 6.386695s29.804574 61.738046 34.06237 93.671517c6.386694 31.933472-14.902287 272.49896-14.902287 272.498961s55.351351 17.031185 78.769231 10.644491c23.417879-6.386694 40.449064-31.933472 46.835758-80.898129 6.386694-48.964657 0-129.862786 0-129.862786s-63.866944-138.378378-68.12474-146.893971c0-8.515593-8.515593-53.222453-8.515592-53.222453z" fill="#344A5E" /><path d="M836.656965 295.91684s6.386694 12.773389 19.160083 23.417879c12.773389 10.644491 17.031185 12.773389 17.031185 12.773389s-12.773389 14.902287-14.902287 23.41788l-8.515593 12.773388s-21.288981-38.320166-23.417879-46.835759 10.644491-25.546778 10.644491-25.546777z" fill="#F3F3F3" /><path d="M830.27027 306.561331s-2.128898 27.675676 2.128898 53.222453 27.675676 114.960499 53.222454 166.054054c0 0-65.995842-87.284823-87.284824-166.054054l14.902287-12.773389-14.902287-6.386694s4.257796-10.644491 8.515593-17.031185c4.257796-4.257796 6.386694-4.257796 8.515592-6.386695s10.644491-10.644491 14.902287-10.64449z" fill="#415A6B" /><path d="M779.176715 706.794179l12.773389 17.031185s8.515593 14.902287 10.644491 21.288981c2.128898 4.257796 4.257796 10.644491 4.257796 10.644491s-10.644491 8.515593-17.031185-8.515593l-6.386695-8.515592s-4.257796 2.128898-6.386694 4.257796c-2.128898 0-2.128898 4.257796-2.128898 4.257796s2.128898 6.386694 2.128898 10.644491v2.128898s4.257796 8.515593 4.257796 10.644491c0 0 6.386694 6.386694 6.386695 8.515592 0 0 10.644491 6.386694 6.386694 14.902287l-4.257796-6.386694s0 2.128898-4.257796 2.128898l-6.386695-2.128898-25.546777-14.902287c-2.128898-2.128898-4.257796-4.257796-4.257797-6.386695l-6.386694-14.902286v-46.835759l36.191268 2.128898z" fill="#FFD15C" /><path d="M721.696466 536.482328l14.902287 187.343036s8.515593-6.386694 23.417879-10.644491c8.515593-2.128898 17.031185-4.257796 25.546778-2.128898 0 0-10.644491-74.511435-8.515593-102.18711 4.257796-27.675676 0-136.24948-4.257796-157.538462-6.386694-31.933472-34.06237-93.671518-34.06237-93.671517s-8.515593-2.128898-8.515593 17.031185 0 65.995842-4.257796 100.058212c-4.257796 36.191268-4.257796 61.738046-4.257796 61.738045z" fill="#415A6B" /></svg>