<?xml version="1.0" standalone="no"?><!DOCTYPE svg PUBLIC "-//W3C//DTD SVG 1.1//EN" "http://www.w3.org/Graphics/SVG/1.1/DTD/svg11.dtd"><svg class="icon" width="200px" height="200.00px" viewBox="0 0 1024 1024" version="1.1" xmlns="http://www.w3.org/2000/svg"><path d="M272.384 229.888c0-28.672 24.064-46.592 46.08-46.592 6.656 0 13.312 1.536 19.456 4.608L560.64 291.84v686.592l-261.632-121.856c-16.384-7.68-26.624-24.064-26.624-41.984V229.888z" fill="#FFAC5C" /><path d="M163.328 921.6V377.856c0-43.008 30.208-78.848 70.656-87.552v524.8c0 32.768 18.944 62.464 48.64 76.288l258.048 120.32H253.44c-49.664-0.512-90.112-40.96-90.112-90.112z" fill="#FFCF91" /><path d="M995.84 921.6c0 49.664-40.448 89.6-89.6 89.6h-307.712c0-1.024 0.512-2.048 0.512-2.56V287.744h307.2c49.664 0 89.6 40.448 89.6 89.6V921.6z" fill="#FF9334" /><path d="M468.992 66.56c0 6.656 1.024 11.776 2.048 11.776s2.048-5.12 2.048-11.776c0-6.656-1.024-11.776-2.048-11.776s-2.048 5.12-2.048 11.776zM480.256 46.08c0 1.024 5.12 2.048 11.776 2.048s11.776-1.024 11.776-2.048-5.12-2.048-11.776-2.048-11.776 1.024-11.776 2.048zM476.16 38.4c1.024 0.512 4.608-3.584 7.68-9.216s5.12-10.752 4.096-11.264c-0.512-1.024-4.096 2.048-7.168 7.68s-5.632 11.264-4.608 12.8zM470.016 25.6c0 6.656 1.024 11.776 2.048 11.776s2.048-5.12 2.048-11.776c0-6.656-1.024-11.776-2.048-11.776s-2.048 5.12-2.048 11.776zM439.296 45.568c0 1.024 5.12 2.048 11.776 2.048s11.776-1.024 11.776-2.048-5.12-2.048-11.776-2.048-11.776 0.512-11.776 2.048zM455.168 73.728c1.024 0.512 4.608-3.584 7.68-9.216s5.12-10.752 4.096-11.264c-1.024-0.512-4.608 3.584-7.68 9.216s-5.12 10.752-4.096 11.264zM443.392 61.952c0.512 1.024 5.632-0.512 11.264-4.096 5.632-3.072 9.728-6.656 9.216-7.68-0.512-1.024-5.632 0.512-11.264 4.096-5.632 3.072-9.728 6.656-9.216 7.68zM479.232 42.496c0.512 1.024 5.632-0.512 11.264-4.096 5.632-3.072 9.728-6.656 9.216-7.68-0.512-1.024-5.632 0.512-11.264 4.096-5.632 3.584-9.728 6.656-9.216 7.68z" fill="#E61F19" /><path d="M418.304 128.512c0 8.192 6.656 14.336 14.336 14.336 8.192 0 14.336-6.656 14.336-14.336 0-8.192-6.656-14.336-14.336-14.336-7.68-0.512-14.336 6.144-14.336 14.336z" fill="#2C65AF" /><path d="M189.44 131.584c5.632-3.072 8.704-8.704 6.144-12.8L153.6 37.376c-2.048-4.096-8.704-5.12-14.336-2.048-5.632 3.072-8.704 8.704-6.144 12.8l41.984 81.408c2.048 4.096 8.704 4.608 14.336 2.048z" fill="#7CCBE2" /><path d="M212.48 58.368c-3.072-5.632-8.704-8.704-12.8-6.144l-81.408 41.984c-4.096 2.048-5.12 8.704-2.048 14.336 3.072 5.632 8.704 8.704 12.8 6.144l81.408-41.984c4.096-2.56 5.12-8.704 2.048-14.336z" fill="#7CCBE2" /><path d="M26.624 205.312c0 15.872 13.312 29.184 29.184 29.184s29.184-13.312 29.184-29.184-13.312-29.184-29.184-29.184-29.184 12.8-29.184 29.184z" fill="#EC7677" /><path d="M310.272 24.576c19.968 0 36.352 16.384 36.352 36.352S330.24 97.28 310.272 97.28c-19.968 0-36.352-16.384-36.352-36.352s15.872-36.352 36.352-36.352z m0 62.976c14.848 0 27.136-11.776 27.136-26.624s-11.776-26.624-27.136-26.624c-14.848 0-27.136 11.776-27.136 26.624s12.288 26.624 27.136 26.624z" fill="#E62A52" /><path d="M855.04 399.36c-8.192 0-14.848-6.656-14.848-14.848v-48.128c0-8.192 6.656-14.848 14.848-14.848s14.848 6.656 14.848 14.848v48.128c0 8.192-6.656 14.848-14.848 14.848z m0 207.36c-8.192 0-14.848-6.656-14.848-14.848V450.048c0-8.192 6.656-14.848 14.848-14.848s14.848 6.656 14.848 14.848v141.312c0 8.704-6.656 15.36-14.848 15.36z" fill="#FFFFFF" /><path d="M533.504 960.512l-283.136-132.096c-21.504-10.24-35.328-31.744-35.328-55.808V187.904c0-37.888 31.744-61.44 61.44-61.44 8.704 0 17.408 2.048 26.112 5.632L533.504 240.64v719.872zM276.48 156.672c-14.848 0-31.232 11.776-31.232 31.232v584.704c0 12.288 7.168 23.552 17.92 28.672l240.128 112.128V259.584L289.792 159.744c-4.096-2.048-8.704-3.072-13.312-3.072z"  /><path d="M566.272 984.064H211.456c-57.856 0-104.96-47.104-104.96-104.96v-60.928c0-8.192 6.656-14.848 14.848-14.848s14.848 6.656 14.848 14.848v60.928c0 40.96 33.792 74.752 74.752 74.752h219.648l-196.608-91.648c-34.816-16.384-57.344-51.712-57.344-90.112V269.312c-24.576 12.8-40.96 38.4-40.96 66.56v430.592c0 8.192-6.656 14.848-14.848 14.848s-14.848-6.656-14.848-14.848V335.872c0-24.064 8.192-47.616 23.552-66.048 14.848-18.432 35.84-31.232 58.88-36.352l18.432-4.096v543.232c0 26.624 15.872 51.2 39.936 62.464l319.488 148.992zM953.344 621.056c-1.024 0-1.536-0.512-1.536-1.536V486.4c0-1.024 0.512-1.536 1.536-1.536s1.536 0.512 1.536 1.536v133.12c0 1.024-0.512 1.536-1.536 1.536z"  /><path d="M863.744 984.064h-325.12l2.56-16.896V230.912h322.048c57.856 0 104.96 47.104 104.96 104.96v93.184c0 8.192-6.656 14.848-14.848 14.848s-14.848-6.656-14.848-14.848V335.872c0-40.96-33.792-74.752-74.752-74.752h-292.352v693.248h292.352c40.96 0 74.752-33.792 74.752-74.752v-194.048c0-8.192 6.656-14.848 14.848-14.848s14.848 6.656 14.848 14.848v194.048c0.512 57.856-46.592 104.448-104.448 104.448z"  /><path d="M489.472 73.216c1.024-0.512-1.536-5.632-5.12-10.752-4.096-5.12-7.68-9.216-8.704-8.192-1.536 0 0.512 4.608 4.096 9.728 3.584 5.12 7.68 9.216 9.728 9.216-0.512 0-0.512 0 0 0zM463.36 42.496c0.512-1.024-3.584-4.096-9.728-7.168-5.632-3.072-11.264-4.608-11.776-3.584-0.512 1.024 3.072 4.096 8.704 7.168 5.632 2.56 11.264 4.608 12.8 3.584 0 0.512 0 0 0 0zM466.432 37.888c1.024-0.512-1.024-5.632-4.608-11.264s-7.68-9.216-8.192-8.704c-1.536 0 0.512 4.608 3.584 10.24 3.584 5.632 7.168 10.24 9.216 9.728 0 0.512 0 0 0 0zM500.224 61.44c0.512-1.024-3.584-4.608-9.728-7.168-5.632-3.072-11.264-4.608-11.264-3.584-1.024 0.512 2.56 4.096 8.192 7.168 5.632 2.56 11.264 4.608 12.8 3.584z" fill="#E61F19" /></svg>