<?xml version="1.0" standalone="no"?><!DOCTYPE svg PUBLIC "-//W3C//DTD SVG 1.1//EN" "http://www.w3.org/Graphics/SVG/1.1/DTD/svg11.dtd"><svg class="icon" width="200px" height="137.73px" viewBox="0 0 1487 1024" version="1.1" xmlns="http://www.w3.org/2000/svg"><path d="M198.126742 458.613933L730.606742 59.368989s115.05618 95.036404 57.067865 228.041348l-437.213483 437.213483s38.888989-228.041348-152.334382-266.009887z" fill="#D3DDE8" /><path d="M46.022472 705.754607a133.004944 95.036404 90 1 0 190.072809 0 133.004944 95.036404 90 1 0-190.072809 0Z" fill="#D3DDE8" /><path d="M281.197303 858.779326l23.011236-141.749214c2.991461-18.639101 25.542472-184.089888-115.056179-213.544269l-101.019326-20.249888 644.314606-483.235955 27.843596 23.011236c48.553708 40.499775 125.641348 151.413933 69.033708 281.657528l-2.761348 8.974382z m10.124944-412.821573a242.768539 242.768539 0 0 1 103.550562 168.902472l353.452584-352.99236a146.121348 146.121348 0 0 0-23.011236-140.598652zM623.374382 898.818876l-28.994157-58.448539c-17.488539-34.516854-89.973933-36.587865-123.570337-31.985618l-135.53618 18.639101 523.275505-523.505618 11.505618-3.221573c145.891236-41.880449 232.643596-1.610787 242.308315 2.991461l55.917303 27.613483z m-53.155955-176.726292a181.558652 181.558652 0 0 1 66.732584 29.914607L1000.068315 373.47236a355.293483 355.293483 0 0 0-93.655731 12.195955zM895.597303 1024a196.515955 196.515955 0 0 1-112.985168-35.897528l-121.269214-84.911461 522.124944-567.457078 27.153259 67.883146c0 1.380674 30.835056 61.900225 161.078651 47.403146l115.05618-12.886292-442.275955 517.062471a196.05573 196.05573 0 0 1-148.882697 68.803596z m-95.266516-135.766292l34.977078 24.622022a104.240899 104.240899 0 0 0 139.44809-17.718651l303.748315-354.373034a222.978876 222.978876 0 0 1-112.524944-50.164494z" fill="#434F5F" /><path d="M141.058876 884.782022C61.900225 884.782022 0 806.083596 0 705.754607s61.900225-179.027416 141.058876-179.027416 141.058876 78.698427 141.058877 179.027416-61.900225 179.027416-141.058877 179.027415z m0-266.24c-23.011236 0-49.013933 37.278202-49.013932 86.982472s26.002697 86.982472 49.013932 86.982472 49.013933-37.278202 49.013933-86.982472-25.772584-86.75236-49.013933-86.752359z" fill="#434F5F" /></svg>