<?xml version="1.0" standalone="no"?><!DOCTYPE svg PUBLIC "-//W3C//DTD SVG 1.1//EN" "http://www.w3.org/Graphics/SVG/1.1/DTD/svg11.dtd"><svg class="icon" width="200px" height="200.00px" viewBox="0 0 1024 1024" version="1.1" xmlns="http://www.w3.org/2000/svg"><path d="M663.620163 926.771717H323.062587c-139.636364 0-227.038384-81.971717-227.038383-227.038384V359.175758c0-145.19596 92.70303-227.038384 227.038383-227.038384h224.19394V65.680808H294.747436C148.38784 65.680808 29.826224 184.371717 29.826224 330.731313v397.317172C29.826224 874.408081 148.38784 992.969697 294.747436 992.969697h397.446465c146.359596 0 264.921212-118.561616 264.921212-264.921212V475.539394H890.917133v224.193939c-0.129293 137.826263-92.832323 227.038384-227.29697 227.038384z m0 0"  /><path d="M987.111072 110.416162l-72.145454-72.145455C910.311072 33.616162 904.234305 31.030303 897.769658 31.030303c-6.335354 0-12.541414 2.585859-17.066666 7.111111L544.153497 374.949495c-4.525253 4.525253-6.981818 10.731313-6.981819 17.066667v70.20606c0 14.351515 11.636364 25.858586 25.858586 25.858586h70.206061c6.335354 0 12.541414-2.456566 17.066667-6.981818l336.678787-336.808081c9.567677-9.309091 9.567677-24.565657 0.129293-33.874747z m-52.363636 18.230303L623.927234 439.59596c-0.387879 0.387879-0.775758 0.517172-1.292929 0.517171H587.078749c-1.034343 0-1.810101-0.775758-1.810101-1.810101v-35.555555c0-0.517172 0.258586-0.905051 0.517172-1.29293L896.606022 90.505051c0.775758-0.775758 1.939394-0.775758 2.585858 0l35.555556 35.426262c0.775758 0.775758 0.775758 1.939394 0 2.715152z m0 0"  /></svg>