<?xml version="1.0" standalone="no"?><!DOCTYPE svg PUBLIC "-//W3C//DTD SVG 1.1//EN" "http://www.w3.org/Graphics/SVG/1.1/DTD/svg11.dtd"><svg class="icon" width="200px" height="200.00px" viewBox="0 0 1024 1024" version="1.1" xmlns="http://www.w3.org/2000/svg"><path d="M497.61340333 882.78857422l-91.58477784-46.05194092a223.2888794 223.2888794 0 0 0-61.62506104-19.46640015l-113.60961914-17.83493042C178.80938721 791.09255982 141.21142578 756.94293213 141.21142578 717.23147583V225.38043213C141.21142578 178.92062378 192.00946045 141.21142578 254.82104492 141.21142578H299.16735839c109.60510254 0 198.37188721 65.88912964 198.37188721 146.86935425V882.78857422z" fill="#13227a" fill-opacity=".22" /><path d="M526.0158081 882.78857422l91.58477784-46.05194092a223.2888794 223.2888794 0 0 1 61.58798218-19.46640015l113.60961914-17.83493042C845.19061279 791.09255982 882.78857422 756.94293213 882.78857422 717.23147583V225.38043213C882.78857422 178.92062378 831.99053955 141.21142578 769.17895508 141.21142578H724.83264161c-109.60510254 0-198.37188721 65.88912964-198.37188721 146.86935425V882.78857422h-0.40786744z" fill="#13227a" /><path d="M235.61419678 306.76852417h-20.80123902a24.13833618 24.13833618 0 0 1-24.39788818-24.2124939c0-13.49670411 10.78994751-24.24957276 24.39788818-24.24957275h20.76416016c13.64501953 0 24.43496704 10.75286865 24.43496704 24.24957275a24.39788818 24.39788818 0 0 1-24.39788818 24.2124939zM351.18899536 438.5838623H214.81295776a24.13833618 24.13833618 0 0 1-24.39788818-24.24957275c0-13.49670411 10.78994751-24.2124939 24.39788818-24.2124939h136.82098389c13.57086182 0 24.36080932 10.75286865 24.36080932 24.2124939a25.02822876 25.02822876 0 0 1-24.80575561 24.21249389zM413.5927124 569.95425415H214.81295776a24.13833618 24.13833618 0 0 1-24.39788818-24.21249389c0-13.49670411 10.78994751-24.2124939 24.39788818-24.2124939h199.18762208c13.60794068 0 24.39788818 10.71578979 24.39788818 24.2124939a24.76867676 24.76867676 0 0 1-24.80575562 24.21249389z" fill="#13227a" /></svg>